<?xml version="1.0" standalone="no"?>
<!DOCTYPE svg PUBLIC "-//W3C//DTD SVG 20010904//EN"
 "http://www.w3.org/TR/2001/REC-SVG-20010904/DTD/svg10.dtd">
<svg version="1.0" xmlns="http://www.w3.org/2000/svg"
 width="400.000000pt" height="400.000000pt" viewBox="0 0 400.000000 400.000000"
 preserveAspectRatio="xMidYMid meet">
<metadata>
Created by potrace 1.11, written by Peter Selinger 2001-2013
</metadata>
<g transform="translate(0.000000,400.000000) scale(0.100000,-0.100000)"
fill="#000000" stroke="none">
<path d="M1347 3898 c11 -19 13 -38 3 -38 -5 0 -12 5 -15 10 -4 6 -12 4 -21
-5 -14 -14 -35 -20 -57 -16 -4 1 -17 -8 -29 -19 -12 -11 -28 -18 -35 -16 -7 3
-13 1 -13 -4 0 -6 5 -10 10 -10 17 0 11 -20 -15 -46 -16 -16 -20 -26 -12 -28
50 -16 60 -13 140 40 44 30 91 57 104 60 32 8 29 18 -14 53 -39 32 -60 40 -46
19z"/>
<path d="M1218 3873 c7 -3 16 -2 19 1 4 3 -2 6 -13 5 -11 0 -14 -3 -6 -6z"/>
<path d="M1135 3850 c28 -12 55 -12 55 0 0 6 -17 10 -37 9 -31 0 -34 -2 -18
-9z"/>
<path d="M1142 3788 c-6 -6 -24 -13 -39 -14 -40 -3 -95 -29 -118 -55 l-20 -22
27 17 c18 12 42 16 80 14 49 -3 55 -1 76 26 12 17 22 34 22 38 0 12 -14 10
-28 -4z"/>
<path d="M905 3710 c-16 -7 -17 -9 -3 -9 9 -1 20 4 23 9 7 11 7 11 -20 0z"/>
<path d="M1080 3691 c0 -4 11 -6 25 -3 14 2 25 6 25 8 0 2 -11 4 -25 4 -14 0
-25 -4 -25 -9z"/>
<path d="M880 3671 c0 -5 -3 -17 -6 -26 -6 -14 -1 -16 31 -13 21 2 40 9 43 16
2 7 -1 12 -8 12 -6 0 -8 5 -5 10 4 6 -7 10 -24 10 -17 0 -31 -4 -31 -9z"/>
<path d="M958 3673 c7 -3 16 -2 19 1 4 3 -2 6 -13 5 -11 0 -14 -3 -6 -6z"/>
<path d="M1128 3663 c7 -3 16 -2 19 1 4 3 -2 6 -13 5 -11 0 -14 -3 -6 -6z"/>
<path d="M1451 3655 c-24 -8 -80 -21 -124 -30 -88 -18 -138 -39 -134 -57 1 -7
-7 -13 -18 -15 l-20 -3 20 9 c20 9 19 10 -1 10 -17 1 -22 -4 -20 -24 1 -30 5
-31 51 -5 20 11 48 20 63 20 33 0 265 94 255 103 -9 9 -21 8 -72 -8z"/>
<path d="M1080 3640 c-13 -9 -13 -10 0 -10 8 0 22 5 30 10 13 9 13 10 0 10 -8
0 -22 -5 -30 -10z"/>
<path d="M795 3606 c-13 -13 -29 -43 -35 -67 -7 -24 -16 -49 -21 -56 -6 -7 -6
-13 0 -17 6 -4 3 -19 -7 -39 -11 -20 -18 -64 -20 -119 -4 -84 -3 -88 17 -88
16 0 21 -6 21 -25 0 -14 5 -25 10 -25 6 0 10 -8 10 -17 0 -14 -2 -15 -9 -4
-16 26 -22 -8 -6 -38 8 -16 12 -37 9 -45 -3 -9 -1 -16 5 -16 6 0 11 -7 11 -15
0 -8 -4 -15 -9 -15 -11 0 -2 -38 11 -46 6 -4 23 8 38 25 35 38 52 40 46 6 -4
-19 0 -25 14 -25 10 0 22 -5 25 -10 10 -16 35 8 35 32 0 23 46 105 65 116 7 4
15 14 17 22 4 17 41 50 58 50 6 0 8 4 5 10 -6 10 31 69 52 83 7 4 10 14 7 21
-3 9 2 13 18 11 13 -1 25 -3 28 -5 17 -8 84 1 91 11 6 10 11 10 22 1 7 -7 17
-9 20 -5 4 3 7 -1 7 -10 0 -10 5 -17 10 -17 6 0 10 5 10 10 0 6 4 9 8 8 4 -2
24 4 43 14 172 83 208 96 292 108 48 7 87 15 87 19 0 18 -52 30 -149 34 -89 5
-114 2 -184 -19 -44 -13 -92 -24 -107 -24 -14 0 -34 -6 -45 -14 -11 -7 -44
-19 -73 -26 -51 -12 -55 -11 -75 9 -18 18 -20 25 -11 49 l11 28 -60 0 c-46 0
-62 4 -72 18 -8 10 -12 23 -11 29 2 7 1 9 -1 4 -3 -4 -10 -4 -16 0 -7 4 -8 0
-2 -13 4 -10 10 -30 12 -44 4 -24 4 -24 -11 -6 -9 11 -16 23 -16 28 0 4 -7 8
-15 8 -9 0 -12 -6 -9 -15 8 -20 2 -19 -26 5 l-23 20 21 0 c27 0 27 10 2 59
-28 56 -84 68 -125 27z m35 -110 c0 -2 -8 -10 -17 -17 -16 -13 -17 -12 -4 4
13 16 21 21 21 13z m80 -15 c0 -5 14 -11 30 -14 38 -8 40 -27 3 -26 -48 2 -62
9 -60 29 1 19 27 29 27 11z m59 -67 c38 -22 39 -29 4 -42 -69 -26 -150 -25
-124 1 9 9 14 8 21 -3 8 -13 10 -13 10 2 0 9 6 19 13 21 6 3 1 6 -13 6 -14 1
-32 6 -40 11 -13 9 -13 11 0 20 22 14 93 5 129 -16z m24 -58 c4 -9 0 -13 -11
-11 -9 2 -19 4 -22 4 -4 1 21 20 26 21 1 0 4 -6 7 -14z m87 -30 c0 -3 -4 -8
-10 -11 -5 -3 -10 -1 -10 4 0 6 5 11 10 11 6 0 10 -2 10 -4z"/>
<path d="M910 3390 c0 -5 5 -10 11 -10 5 0 7 5 4 10 -3 6 -8 10 -11 10 -2 0
-4 -4 -4 -10z"/>
<path d="M983 3587 c-7 -11 -2 -15 22 -17 34 -4 50 -1 70 14 17 12 14 14 -34
13 -28 0 -55 -5 -58 -10z"/>
<path d="M1777 3319 c-49 -8 -75 -19 -44 -19 9 0 18 -4 21 -9 5 -7 -37 -7 -84
1 -14 2 -50 -14 -175 -74 -22 -10 -53 -26 -69 -35 -16 -8 -40 -15 -53 -15 -22
0 -23 -2 -8 -24 8 -13 12 -30 9 -38 -4 -11 0 -16 10 -16 9 0 16 -5 16 -11 0
-6 6 -9 14 -6 14 6 36 -31 36 -60 0 -13 -3 -14 -11 -6 -11 11 -33 -1 -67 -38
-13 -15 -18 -15 -50 -2 -29 12 -85 13 -139 3 -2 0 -3 -4 -3 -9 0 -5 15 -15 34
-21 19 -6 40 -17 46 -25 10 -12 0 -14 -58 -12 -56 2 -74 -2 -90 -17 -12 -10
-28 -16 -37 -13 -24 10 -17 -9 10 -27 14 -9 23 -22 19 -28 -4 -5 -2 -13 3 -17
5 -3 24 -34 42 -69 26 -51 31 -72 28 -109 -3 -38 -1 -46 15 -51 14 -3 1 -13
-49 -37 -37 -18 -88 -41 -113 -50 -25 -9 -58 -32 -74 -51 -24 -30 -27 -38 -18
-58 12 -26 5 -69 -9 -60 -5 3 -9 0 -9 -5 0 -17 -27 -13 -34 5 -3 8 -10 13 -15
10 -5 -3 -14 8 -21 24 -7 17 -18 30 -24 30 -8 0 -11 11 -8 30 2 18 0 30 -7 30
-15 0 -42 -56 -35 -74 4 -11 1 -16 -10 -16 -9 0 -19 -7 -22 -15 -4 -8 -10 -12
-15 -9 -5 3 -9 -2 -9 -10 0 -9 -4 -16 -10 -16 -5 0 -10 -4 -10 -9 0 -9 42 -7
58 3 4 3 8 -13 8 -35 0 -42 -2 -44 -26 -29 -10 6 -11 10 -2 10 6 0 12 5 12 11
0 15 -18 2 -31 -23 -8 -15 -8 -19 0 -14 6 4 11 2 11 -3 0 -6 -4 -11 -9 -11 -5
0 -8 -8 -6 -17 1 -12 9 -17 21 -14 13 2 9 -6 -15 -27 -21 -18 -32 -35 -28 -45
3 -8 1 -19 -4 -24 -12 -12 -1 -63 13 -63 5 0 8 -6 5 -12 -5 -14 29 -82 55
-112 9 -10 21 -15 27 -11 6 3 11 1 11 -6 0 -17 40 -49 55 -43 7 3 16 1 20 -5
3 -6 2 -11 -4 -11 -6 0 -8 -7 -5 -15 4 -8 1 -15 -6 -15 -6 0 -8 -4 -5 -10 3
-5 17 -10 30 -10 13 0 27 -5 30 -10 9 -14 42 -12 48 3 3 7 6 4 6 -7 1 -12 6
-16 17 -12 9 4 13 2 8 -5 -4 -7 -1 -10 7 -7 8 3 14 11 14 18 0 7 6 15 13 18
16 5 16 -24 0 -34 -9 -6 -5 -10 12 -15 24 -7 24 -7 3 -8 -13 -1 -23 -6 -23
-11 0 -6 -11 -22 -25 -35 -29 -30 -65 -32 -178 -10 -84 16 -104 24 -156 63
-40 30 -91 39 -91 16 0 -9 23 -26 60 -41 74 -32 73 -41 -1 -11 -74 30 -178 98
-212 139 -15 18 -27 29 -27 24 0 -5 -7 1 -16 13 -8 12 -22 22 -30 22 -8 0 -13
4 -10 9 3 4 -4 8 -16 7 -21 -1 -40 -26 -19 -26 5 0 8 -12 5 -26 -3 -16 -1 -23
6 -19 6 3 7 0 4 -10 -4 -8 -1 -22 5 -29 10 -12 8 -15 -10 -18 -22 -3 -22 -4 9
-39 17 -20 58 -56 89 -80 32 -23 62 -46 66 -49 4 -4 -3 -6 -15 -4 -13 1 -23 3
-23 4 0 2 -9 4 -20 5 -11 2 -58 8 -105 14 -47 7 -136 14 -197 18 -109 6 -113
5 -113 -14 0 -18 10 -22 77 -32 43 -6 139 -27 214 -46 168 -43 354 -75 435
-75 58 0 95 -16 77 -33 -9 -10 -25 -9 -19 1 2 4 -23 6 -57 4 -35 -2 -103 3
-152 13 -109 20 -268 57 -275 65 -10 10 -227 60 -263 60 l-36 0 0 -86 c1 -79
3 -85 20 -81 25 7 24 -10 -1 -18 -14 -4 -20 -15 -20 -36 0 -28 1 -29 49 -29
36 0 51 -4 55 -16 4 -9 4 -19 2 -22 -11 -10 -69 -11 -87 -2 -18 10 -19 7 -19
-50 0 -36 4 -60 11 -60 6 0 17 -7 25 -15 14 -13 14 -15 0 -15 -9 0 -16 5 -16
11 0 5 -4 7 -10 4 -5 -3 -10 -26 -10 -51 0 -42 1 -44 30 -44 17 0 45 -7 61
-16 28 -14 32 -14 50 2 10 9 16 21 13 25 -3 5 0 9 7 9 7 0 4 7 -7 15 -18 14
-18 14 8 15 25 0 27 2 18 26 -7 17 -7 23 0 19 11 -7 70 16 70 27 0 3 14 9 30
13 25 5 30 11 25 26 -5 14 -3 17 9 13 11 -4 16 0 16 12 0 13 3 15 8 7 4 -7 16
-10 27 -8 11 2 28 4 39 4 17 1 17 3 3 25 -15 22 -14 23 6 22 12 -1 37 1 55 5
18 4 32 3 32 -2 0 -6 9 -5 21 1 11 7 46 14 77 16 31 2 76 13 98 24 23 10 54
22 68 26 14 3 26 10 26 14 0 5 9 6 20 3 11 -3 20 -7 20 -9 0 -7 -93 -90 -144
-127 -28 -21 -64 -49 -81 -63 -119 -99 -133 -107 -186 -100 -84 11 -115 -17
-139 -128 -14 -65 -37 -106 -59 -106 -10 0 -32 16 -50 35 -17 19 -37 35 -44
35 -7 0 -18 9 -25 20 -7 11 -19 20 -27 20 -8 0 -15 4 -15 9 0 5 -14 19 -30 31
l-30 21 0 -255 0 -256 45 35 c25 19 52 38 59 42 15 9 44 91 50 140 4 36 31 83
47 83 7 0 9 -10 6 -23 -15 -63 -96 -257 -107 -254 -6 2 -57 -34 -86 -61 -11
-11 -14 -58 -14 -242 l0 -229 190 0 190 0 0 24 c0 14 -5 25 -11 25 -5 0 -7 5
-4 11 4 6 -1 16 -11 23 -11 8 -14 18 -9 26 7 11 10 9 17 -6 6 -13 7 -8 3 16
-3 19 -13 41 -23 49 -16 13 -16 13 2 7 14 -5 17 -2 12 10 -3 8 -6 24 -6 34 0
10 -11 32 -25 48 -27 33 -20 42 31 42 14 0 27 7 30 15 7 16 54 21 54 5 0 -5
14 -7 30 -5 17 2 28 0 26 -4 -3 -4 8 -23 24 -42 17 -19 27 -26 24 -17 -3 10 3
26 15 39 11 12 18 26 15 30 -2 4 7 20 21 35 14 15 25 31 25 35 0 5 7 9 15 9 8
0 12 6 9 14 -3 8 2 16 13 19 13 3 14 5 2 6 -8 0 -26 -9 -39 -21 -14 -13 -29
-23 -35 -23 -5 0 -9 -8 -9 -18 1 -9 -2 -14 -7 -11 -11 6 -41 -21 -32 -30 4 -3
1 -6 -5 -6 -17 0 -15 14 8 43 14 18 17 28 9 33 -6 3 -15 1 -19 -6 -5 -8 -10
-9 -14 -2 -4 6 -13 9 -20 6 -8 -3 -17 -1 -21 5 -3 6 0 9 8 5 8 -3 18 -1 21 5
4 5 -2 10 -11 10 -10 0 -36 4 -58 10 -50 12 -151 21 -159 14 -9 -10 15 -33 27
-26 5 3 7 1 4 -5 -8 -12 -47 -4 -65 15 -7 7 -10 13 -7 13 4 0 0 11 -8 24 -15
22 -15 25 -1 30 9 3 26 6 39 6 13 0 36 5 52 12 15 6 32 10 36 9 5 -1 7 4 4 11
-2 7 2 26 10 41 8 15 12 31 9 35 -2 4 4 9 15 9 16 2 18 -1 10 -11 -9 -10 -7
-15 5 -20 9 -4 19 -4 22 -1 3 3 0 5 -6 5 -6 0 -9 6 -6 14 4 11 10 11 29 2 13
-6 21 -14 18 -19 -2 -4 1 -6 9 -5 7 2 12 -5 12 -15 -2 -23 18 -17 22 7 1 10 0
15 -3 12 -6 -6 -33 18 -33 29 0 4 11 4 24 1 20 -5 23 -3 19 14 -3 11 -9 18
-13 15 -5 -3 -11 -1 -15 5 -8 13 11 13 34 0 26 -13 66 29 45 48 -11 10 -15 8
-20 -14 -6 -24 -8 -25 -17 -8 -15 28 -15 28 -32 14 -8 -7 -15 -9 -15 -5 0 4
-6 2 -14 -4 -8 -7 -22 -14 -32 -16 -11 -2 -29 -7 -41 -11 -13 -3 -23 -2 -23 4
0 16 28 34 42 26 7 -4 9 -3 5 1 -4 5 3 15 15 22 15 8 18 12 8 13 -9 0 -25 -7
-37 -15 -25 -17 -30 -12 -28 30 2 49 15 74 45 90 39 20 71 20 63 -1 -4 -11 -9
-12 -16 -5 -6 6 -15 11 -21 11 -5 0 -1 -6 10 -14 17 -13 21 -12 39 4 11 10 39
28 62 40 23 12 47 28 54 36 6 8 17 14 24 14 14 0 121 110 154 160 39 57 124
140 143 140 24 0 34 -28 19 -51 -7 -12 -7 -19 -1 -19 5 0 10 -4 10 -10 0 -5
-6 -10 -14 -10 -34 0 -37 -83 -4 -110 21 -17 22 -19 5 -26 -13 -5 -15 -9 -7
-14 9 -5 9 -9 1 -14 -6 -4 -11 -3 -11 3 0 5 -14 16 -30 25 -31 15 -39 9 -17
-13 10 -11 7 -12 -13 -7 -14 3 -19 3 -12 0 16 -7 16 -24 0 -24 -7 -1 -24 -9
-36 -20 -22 -18 -22 -21 -8 -36 20 -20 20 -25 1 -18 -9 4 -24 -3 -36 -17 l-19
-23 62 -15 c35 -9 85 -30 112 -46 133 -81 138 -81 156 -22 8 23 15 44 17 46 6
8 59 -55 72 -86 6 -16 26 -38 44 -48 18 -10 49 -36 69 -57 43 -43 70 -48 92
-16 l15 21 9 -24 c23 -59 25 -72 11 -64 -8 4 2 -10 22 -31 37 -40 69 -93 69
-115 0 -7 -6 -5 -13 5 -12 16 -13 14 -10 -15 8 -69 -55 -129 -157 -150 -30 -7
-63 -19 -73 -27 -30 -26 -28 -8 4 31 19 24 42 38 64 43 45 8 73 39 58 62 -9
14 -3 25 35 64 51 53 51 54 -19 109 -37 29 -39 30 -69 14 -23 -12 -30 -22 -28
-38 3 -19 11 -23 63 -27 l60 -5 -54 -54 c-49 -49 -56 -53 -90 -47 -20 3 -42
13 -48 23 -29 38 -8 120 43 172 26 25 22 41 -15 75 -24 21 -71 15 -71 -10 0
-8 -4 -13 -9 -10 -4 3 -19 -3 -31 -14 -13 -11 -18 -20 -12 -20 6 0 13 4 16 9
11 17 56 19 68 3 11 -13 11 -14 0 -8 -7 4 -15 0 -19 -11 -4 -10 -12 -23 -17
-30 -28 -32 -32 -39 -28 -51 2 -6 -1 -12 -7 -12 -6 0 -10 -6 -9 -12 2 -7 -4
-11 -12 -10 -8 2 -12 0 -8 -4 5 -4 -3 -21 -16 -39 l-24 -31 23 -49 c13 -28 24
-58 24 -67 1 -10 11 -28 23 -40 21 -21 21 -22 3 -32 -33 -19 -105 -92 -98
-100 4 -4 0 -4 -10 0 -9 3 -14 10 -11 15 3 5 -2 6 -12 2 -14 -5 -12 -8 10 -22
14 -9 26 -19 26 -23 0 -19 -23 -16 -62 8 -26 16 -37 20 -29 10 12 -14 12 -19
1 -29 -10 -9 -11 -9 -6 1 4 6 2 12 -3 12 -14 0 -14 -6 0 -31 6 -12 17 -18 25
-15 9 3 12 1 9 -4 -4 -6 15 -10 49 -10 53 0 56 1 44 20 -9 14 -9 23 -2 30 8 8
29 3 76 -19 l65 -31 622 0 c456 1 620 4 615 12 -5 8 -2 9 12 2 10 -5 203 -10
428 -12 325 -2 411 0 418 10 5 9 8 9 8 1 0 -7 20 -12 55 -12 51 0 55 2 55 23
0 13 7 29 15 36 8 7 15 19 15 26 0 8 5 14 11 14 8 0 9 -11 5 -31 -3 -17 -6
-35 -6 -40 0 -5 -7 -9 -16 -9 -8 0 -12 -4 -9 -10 7 -11 116 -14 113 -2 -3 15
23 92 32 92 6 0 10 5 10 10 0 13 -33 13 -47 -1 -8 -8 -13 -2 -18 23 -11 51
-26 64 -41 36 -11 -20 -12 -13 -9 51 3 64 2 71 -10 55 -14 -18 -14 -18 -15 3
0 29 -18 39 -22 12 -4 -27 -34 -34 -44 -11 -5 14 -8 12 -13 -8 -5 -18 -15 -26
-33 -28 -30 -4 -47 -37 -29 -55 14 -14 14 -30 1 -22 -6 3 -13 -1 -16 -9 -3 -9
-10 -16 -16 -16 -5 0 -6 5 -2 12 4 6 9 68 10 137 3 86 1 121 -6 110 -5 -9 -8
-35 -6 -57 3 -29 0 -42 -10 -46 -8 -3 -14 -9 -13 -13 3 -15 -14 -73 -22 -78
-4 -3 -14 4 -22 16 -14 20 -15 20 -21 2 -4 -10 -20 -34 -36 -53 -29 -33 -31
-34 -48 -16 -12 13 -14 20 -4 23 15 6 16 39 1 48 -15 10 -25 -3 -12 -16 7 -7
1 -25 -21 -60 -17 -26 -35 -49 -40 -49 -13 0 1 112 14 120 7 4 11 10 11 14 0
3 2 12 5 21 3 8 4 20 1 27 -4 8 -8 5 -12 -9 -4 -13 -13 -23 -20 -23 -7 0 -17
-15 -23 -32 -16 -52 -14 -8 3 52 22 78 29 133 16 125 -6 -3 -11 -19 -11 -34 0
-15 -5 -42 -11 -60 -9 -26 -15 -30 -33 -25 -11 3 -27 11 -33 16 -9 7 -13 7
-13 -1 0 -6 4 -11 9 -11 11 0 20 -59 10 -66 -5 -2 -6 -11 -2 -19 3 -8 0 -15
-6 -15 -6 0 -11 13 -11 29 0 34 -15 49 -24 25 -12 -31 -33 10 -40 79 -8 72
-18 77 -42 23 l-13 -31 -1 27 c0 42 -17 42 -24 0 -10 -60 -8 -78 6 -64 7 7 18
12 25 12 20 0 15 -28 -8 -40 -11 -6 -24 -21 -29 -33 -8 -17 -9 -14 -5 15 3 20
0 40 -5 43 -6 4 -7 11 -4 17 4 7 2 8 -4 4 -7 -4 -12 -18 -12 -32 0 -13 -5 -24
-11 -24 -6 0 -8 7 -5 16 3 9 4 20 1 24 -9 14 -34 0 -29 -15 3 -8 1 -22 -5 -32
-10 -17 -10 -17 -11 0 0 9 -4 17 -10 17 -5 0 -10 -13 -10 -30 0 -63 -30 -12
-31 53 0 14 -4 15 -19 7 -11 -6 -25 -9 -32 -8 -7 2 -14 -7 -16 -19 -2 -16 2
-23 12 -23 9 0 16 5 16 12 0 8 5 8 15 -3 19 -18 3 -77 -35 -131 -25 -34 -27
-35 -39 -17 -12 21 -6 43 10 33 11 -6 10 118 -1 135 -4 7 -13 11 -20 9 -15 -3
-17 2 -19 62 -1 38 -2 39 -21 28 -14 -9 -20 -24 -20 -49 0 -20 -7 -42 -15 -49
-8 -7 -15 -21 -15 -31 0 -10 -13 -28 -30 -41 -16 -12 -30 -27 -30 -34 0 -7 -5
-16 -11 -20 -21 -13 1 49 22 64 26 18 40 53 27 69 -8 10 -5 13 11 13 21 0 29
16 11 22 -6 2 -5 17 2 41 9 29 9 40 0 49 -9 9 -12 6 -13 -13 -1 -13 0 -31 1
-39 1 -10 -3 -9 -14 5 -15 20 -15 20 -16 -5 -1 -40 -11 -68 -27 -74 -12 -5
-14 0 -11 24 6 39 -8 39 -17 0 -11 -52 -22 -41 -17 17 3 40 2 54 -7 49 -6 -4
-11 -17 -11 -29 0 -12 -4 -28 -9 -35 -11 -18 -26 2 -36 46 -3 17 -11 32 -17
32 -10 0 -4 -167 9 -235 4 -24 2 -27 -7 -18 -7 6 -15 31 -17 55 -5 43 -23 79
-23 45 0 -10 -10 -31 -21 -47 -12 -15 -21 -40 -21 -54 0 -14 -4 -26 -9 -26
-15 0 -10 44 11 105 22 64 25 101 10 110 -5 3 -10 -1 -10 -10 0 -12 -6 -15
-20 -10 -16 5 -20 2 -20 -15 0 -21 -47 -100 -60 -100 -12 0 -23 61 -21 108 2
25 -2 42 -8 42 -6 0 -11 -6 -11 -13 0 -7 -9 -19 -20 -27 -24 -17 -26 -30 -5
-30 12 0 11 -4 -5 -20 -11 -11 -20 -32 -20 -46 0 -16 -5 -24 -12 -21 -7 2 -13
17 -13 33 0 21 -5 29 -17 28 -10 -1 -18 2 -18 7 0 5 0 11 0 14 0 3 3 5 8 4 8
0 20 36 21 66 0 19 0 19 -14 2 -7 -11 -11 -25 -8 -33 3 -10 0 -12 -10 -9 -18
8 -26 -19 -20 -73 4 -38 2 -42 -18 -42 -17 0 -20 5 -17 23 7 36 -21 29 -31 -7
-9 -30 -9 -29 -10 14 -2 43 -2 44 -17 25 -15 -19 -15 -19 -13 10 3 46 0 65
-11 65 -5 0 -10 -20 -10 -45 0 -32 -5 -47 -15 -52 -21 -7 -24 -3 -34 48 -9 44
-9 44 -11 9 -2 -55 -16 -11 -30 99 -11 87 -11 97 10 162 13 38 27 69 32 69 9
0 7 80 -3 135 -3 17 1 20 28 19 25 -1 32 3 36 22 5 28 0 30 -25 7 -25 -22 -31
-12 -13 23 8 16 15 34 15 40 0 7 11 19 25 28 14 9 27 27 31 41 8 31 34 33 34
3 0 -20 1 -20 18 -5 10 10 24 17 30 17 6 0 9 7 6 15 -4 9 0 15 9 15 9 0 19
-10 23 -22 4 -13 12 -26 18 -30 6 -5 2 -8 -11 -8 -13 0 -23 -4 -23 -10 0 -19
55 -11 68 10 17 28 30 18 24 -19 -3 -19 -9 -28 -17 -25 -7 3 -16 1 -20 -5 -3
-6 1 -11 9 -11 8 0 21 -6 28 -13 7 -7 21 -16 30 -20 11 -4 15 -12 12 -22 -3
-8 -1 -15 5 -15 6 0 11 7 11 16 0 8 5 12 11 8 8 -4 8 -9 0 -17 -6 -6 -11 -15
-11 -19 0 -12 38 -10 45 2 3 6 38 10 77 10 55 0 75 -4 96 -21 22 -17 28 -18
37 -6 5 7 22 17 38 20 15 4 37 10 50 13 21 5 37 -8 123 -99 12 -13 20 -15 27
-8 6 6 19 11 29 11 10 0 18 4 18 8 0 5 15 16 34 25 21 9 36 25 38 38 4 30 81
84 105 73 10 -4 24 -8 32 -8 8 -1 19 -9 25 -19 17 -26 -4 -52 -43 -52 -34 0
-37 4 -18 24 10 11 9 13 -6 7 -10 -3 -23 -6 -28 -6 -20 0 -8 -41 15 -50 13 -5
35 -20 49 -34 14 -14 38 -28 54 -32 15 -4 34 -11 41 -17 8 -7 12 -5 12 6 0 9
-5 19 -10 22 -12 7 -9 37 4 46 4 4 -1 16 -13 28 -11 11 -21 27 -21 35 0 17 24
28 36 17 5 -5 21 -11 36 -15 23 -5 28 -2 39 27 l13 32 4 -35 c2 -19 12 -40 23
-48 25 -17 24 -28 -2 -35 -12 -3 -18 -10 -14 -16 8 -14 45 -14 45 0 0 6 7 9
15 5 9 -3 15 0 15 10 0 11 6 13 21 9 14 -5 25 -1 34 12 7 10 17 15 20 11 18
-17 44 15 56 67 7 30 15 55 19 55 3 0 4 -30 2 -66 -6 -98 14 -72 22 28 4 46 9
93 13 106 3 13 1 22 -6 22 -6 0 -11 -6 -11 -14 0 -12 -12 -14 -57 -10 -78 7
-103 13 -103 23 0 5 35 8 78 6 65 -4 70 -3 32 5 -114 22 -196 1 -183 -49 l6
-24 -63 6 c-35 4 -78 7 -96 7 -24 0 -34 5 -34 16 0 14 11 15 85 9 58 -5 85 -4
85 3 0 13 -40 19 -205 32 -228 18 -527 49 -533 55 -3 3 1 12 9 20 12 13 32 13
129 5 63 -6 120 -13 127 -15 7 -2 15 0 18 5 4 6 -7 10 -24 10 -35 0 -38 6 -15
32 14 14 14 18 3 22 -26 8 -93 17 -202 25 -59 5 -111 11 -114 15 -4 3 0 6 8 6
8 1 2 8 -13 16 l-28 15 41 52 c42 53 127 221 180 357 16 41 36 87 44 101 37
66 37 78 2 99 -17 11 -50 20 -72 20 -22 0 -46 4 -53 9 -23 14 14 22 75 14 55
-6 55 -6 48 18 -4 13 -8 25 -9 26 -3 4 -142 24 -164 23 -61 0 -154 20 -178 39
-20 16 -30 18 -40 10 -7 -6 -18 -8 -24 -4 -5 3 -10 1 -10 -5 0 -8 -14 -11 -40
-8 -24 2 -39 0 -37 -6 4 -12 41 -24 80 -25 23 -1 67 -31 67 -46 0 -12 -38 -3
-44 10 -3 8 -10 15 -16 15 -6 0 -8 -4 -5 -10 4 -6 -4 -6 -21 0 -15 6 -34 8
-42 5 -8 -3 -20 2 -27 12 -11 14 -16 15 -28 5 -13 -11 -15 -10 -10 7 5 21 -11
29 -22 12 -6 -11 -74 -3 -91 10 -6 5 -37 4 -70 -1 -49 -8 -61 -7 -71 6 -8 11
-13 12 -18 4 -4 -7 -19 -10 -32 -7 -19 3 -27 0 -30 -13 -7 -26 -52 -22 -90 7
-35 27 -35 48 1 40 11 -2 32 -1 46 3 24 7 24 7 -10 17 l-34 9 34 30 c65 55
176 169 138 140 -30 -21 -36 -23 -31 -9 5 15 3 15 -10 -2 -8 -11 -13 -24 -10
-29 4 -5 1 -6 -6 -2 -6 4 -18 2 -26 -4 -11 -9 -14 -7 -12 9 1 12 7 21 14 21 7
0 10 6 8 13 -3 6 7 18 22 24 48 22 65 81 39 132 -8 15 -21 56 -29 89 -12 54
-12 62 0 62 8 0 12 -4 9 -9 -4 -5 3 -7 14 -4 11 3 20 0 20 -6 0 -6 5 -11 10
-11 6 0 10 6 10 13 0 8 6 14 13 15 66 6 100 17 104 33 3 11 12 19 20 19 10 0
14 7 10 19 -3 13 1 21 13 24 28 7 26 104 -2 134 -19 20 -19 23 -4 23 21 0 58
-19 68 -34 4 -6 5 -21 1 -34 l-5 -23 36 23 c21 13 46 28 57 34 33 19 90 86
110 129 11 23 19 64 19 95 0 69 12 90 39 73 26 -16 42 4 18 22 -13 9 -14 14
-4 24 9 10 7 12 -13 9 -14 -2 -25 2 -25 9 0 6 -10 20 -22 31 -26 22 -56 86
-45 97 4 3 2 6 -3 5 -27 -6 -24 4 13 44 70 76 70 121 -1 121 -25 0 -44 -3 -41
-6 2 -4 -2 -10 -8 -12 -10 -4 -9 -8 2 -17 13 -10 13 -11 -2 -6 -10 3 -18 2
-18 -3 0 -9 -57 -13 -83 -5 -18 6 -18 6 0 19 17 13 17 14 -2 21 -11 4 -26 12
-33 17 -17 14 -47 15 -105 6z m-17 -69 c-20 -13 -43 -13 -35 0 3 6 16 10 28
10 18 0 19 -2 7 -10z m80 -6 c0 -2 -12 -4 -26 -4 -14 0 -23 4 -20 9 6 8 46 4
46 -5z m-170 -19 c0 -2 -13 -11 -28 -19 -26 -13 -28 -13 -28 5 0 14 7 19 28
19 15 0 28 -2 28 -5z m-62 -458 c2 -10 0 -26 -4 -35 -4 -9 -6 -23 -5 -31 1 -7
-2 -10 -7 -7 -5 3 -18 -2 -28 -12 -10 -9 -38 -18 -61 -20 l-42 -4 6 37 c6 38
47 90 64 80 5 -4 9 -1 9 5 0 20 64 7 68 -13z m-184 -164 c-18 -15 -22 -22 -11
-19 15 5 16 2 7 -14 -9 -16 -8 -20 5 -20 41 0 72 -69 44 -97 -6 -6 -13 -30
-15 -52 -3 -37 -1 -41 22 -47 25 -6 25 -7 7 -25 -10 -9 -39 -21 -65 -24 -46
-7 -47 -7 -61 27 -8 19 -35 52 -61 73 -32 26 -46 45 -46 62 0 24 2 25 51 18
49 -7 51 -6 45 14 -3 12 -9 30 -12 41 -4 14 -17 22 -45 26 -59 10 -47 21 21
20 33 -1 60 2 60 5 0 4 17 18 38 31 44 30 56 16 16 -19z m380 -25 c17 1 17 0
1 -19 -24 -25 -39 -24 -68 5 -30 30 -25 37 16 24 18 -5 40 -10 51 -10z m-259
-238 c-3 -5 -13 -10 -21 -10 -8 0 -14 5 -14 10 0 6 9 10 21 10 11 0 17 -4 14
-10z m-375 -59 c0 -14 6 -17 25 -13 21 3 25 0 25 -18 0 -19 3 -20 15 -10 11 9
19 7 38 -12 22 -21 46 -28 104 -28 30 0 35 -12 17 -38 -13 -19 -22 -21 -75
-18 -57 4 -109 26 -109 46 0 6 -7 10 -15 10 -9 0 -21 11 -27 25 -6 14 -15 25
-20 25 -10 0 -11 34 -1 43 12 13 23 7 23 -12z m85 8 c11 -17 -1 -21 -15 -4 -8
9 -8 15 -2 15 6 0 14 -5 17 -11z m-136 -138 c52 -46 174 -98 225 -97 42 1 43
-2 16 -36 -10 -14 -16 -28 -13 -32 3 -3 -3 -6 -13 -6 -11 0 -25 -5 -30 -10
-17 -17 -45 0 -42 24 2 15 -2 21 -14 20 -10 -1 -15 3 -11 9 4 6 0 8 -10 4 -10
-4 -22 1 -29 11 -18 24 -58 27 -58 4 0 -9 -9 -23 -21 -30 -17 -11 -23 -11 -37
0 -13 11 -14 11 -8 -1 15 -24 -16 -7 -37 21 -12 15 -20 46 -22 77 -3 48 -2 50
17 40 15 -8 19 -8 14 0 -6 10 12 40 24 41 3 0 25 -18 49 -39z m-359 -31 c0 -5
-2 -10 -4 -10 -3 0 -8 5 -11 10 -3 6 -1 10 4 10 6 0 11 -4 11 -10z m153 -110
c-3 -12 -8 -19 -11 -16 -5 6 5 36 12 36 2 0 2 -9 -1 -20z m202 -120 c3 -5 1
-10 -4 -10 -6 0 -11 5 -11 10 0 6 2 10 4 10 3 0 8 -4 11 -10z m89 -5 c17 -18
11 -46 -9 -39 -7 3 -15 -3 -18 -13 -3 -10 -4 0 -2 22 5 54 4 54 29 30z m-354
-45 c0 -5 -2 -10 -4 -10 -3 0 -8 5 -11 10 -3 6 -1 10 4 10 6 0 11 -4 11 -10z
m1275 -10 c3 -5 -1 -10 -9 -10 -9 0 -16 5 -16 10 0 6 4 10 9 10 6 0 13 -4 16
-10z m55 0 c0 -5 -2 -10 -4 -10 -3 0 -8 5 -11 10 -3 6 -1 10 4 10 6 0 11 -4
11 -10z m-1132 -170 c12 -19 11 -20 -8 -8 -11 7 -20 16 -20 20 0 15 15 8 28
-12z m-830 -346 c-3 -3 -20 -7 -38 -9 -18 -2 -39 -10 -46 -16 -12 -10 -13 -9
-8 4 3 9 13 18 22 20 26 7 76 8 70 1z m-22 -99 c-3 -9 0 -15 10 -15 29 0 8
-25 -24 -28 -22 -2 -30 -7 -26 -15 5 -8 2 -8 -7 1 -11 10 -8 17 16 41 35 34
39 36 31 16z m-100 -127 c4 -7 3 -8 -4 -4 -7 4 -12 2 -12 -4 0 -6 -5 -8 -10
-5 -11 7 -4 25 10 25 5 0 12 -5 16 -12z m1004 -22 c0 -3 -4 -8 -10 -11 -5 -3
-10 -1 -10 4 0 6 5 11 10 11 6 0 10 -2 10 -4z m1318 -121 c30 -11 -1 -22 -50
-19 -62 5 -81 11 -74 22 5 8 98 6 124 -3z m-1554 -22 c19 -23 19 -23 -1 -23
-22 0 -37 25 -27 42 3 5 7 8 8 6 0 -2 10 -13 20 -25z m1273 5 c15 -7 41 -25
57 -40 17 -16 36 -28 42 -28 6 0 16 -6 22 -12 8 -10 0 -12 -39 -10 -39 3 -49
8 -49 22 0 16 -40 36 -61 32 -4 -1 -6 10 -5 23 0 14 2 25 3 25 1 0 14 -6 30
-12z m547 -9 c16 -14 -23 -22 -72 -14 -26 4 -56 7 -67 6 -38 -2 -105 10 -105
20 0 12 231 1 244 -12z m146 -16 c2 -2 -2 -8 -10 -13 -17 -10 -53 7 -44 21 5
9 41 4 54 -8z m-745 -33 c19 -7 19 -8 2 -15 -12 -5 -24 -2 -35 9 -13 13 -14
16 -2 15 8 0 24 -4 35 -9z m241 -66 c-12 -26 -21 -30 -31 -14 -9 15 14 50 29
44 11 -4 11 -10 2 -30z m-166 -33 c0 -6 -4 -13 -10 -16 -5 -3 -10 1 -10 9 0 9
5 16 10 16 6 0 10 -4 10 -9z m-2069 -51 c4 -3 -3 -10 -16 -16 -24 -12 -26 -7
-10 30 7 15 10 17 13 5 3 -7 8 -16 13 -19z m29 26 c0 -2 -7 -7 -16 -10 -8 -3
-12 -2 -9 4 6 10 25 14 25 6z m1468 -73 c24 -63 33 -216 15 -255 -21 -43 -35
-45 -28 -4 4 20 4 36 0 36 -17 0 -37 -34 -39 -68 -1 -20 -8 -46 -15 -57 -10
-17 -11 -13 -6 30 3 28 8 102 11 165 8 152 36 221 62 153z m-1171 -19 c-3 -3
-12 -4 -19 -1 -8 3 -5 6 6 6 11 1 17 -2 13 -5z m-232 -174 c-22 -24 -35 -26
-35 -5 0 9 10 19 23 24 30 12 34 5 12 -19z m212 -56 c-3 -3 -12 -4 -19 -1 -8
3 -5 6 6 6 11 1 17 -2 13 -5z m67 -42 c4 -12 4 -22 -1 -22 -14 1 -44 50 -38
60 8 13 30 -8 39 -38z m-322 6 c-7 -7 -12 -8 -12 -2 0 14 12 26 19 19 2 -3 -1
-11 -7 -17z m113 12 c3 -5 1 -10 -4 -10 -6 0 -11 5 -11 10 0 6 2 10 4 10 3 0
8 -4 11 -10z m-60 -51 c4 -6 13 -8 20 -5 7 2 16 -2 19 -10 3 -8 2 -13 -3 -9
-5 3 -11 0 -13 -7 -5 -14 -25 -3 -38 23 -11 20 3 28 15 8z m106 -96 c6 -17 4
-25 -11 -33 -23 -12 -59 -2 -38 11 7 5 22 6 33 3 14 -4 12 0 -8 13 -15 11 -24
23 -20 26 3 4 -1 7 -10 7 -9 0 -17 7 -17 16 0 14 4 14 31 -3 18 -10 35 -28 40
-40z m-221 13 c-4 -19 -5 -37 -2 -40 3 -4 0 -6 -6 -6 -15 0 -15 20 -2 54 14
37 19 32 10 -8z m1588 -28 c6 -35 14 -90 18 -122 5 -54 4 -58 -10 -43 -9 8
-16 22 -16 29 0 8 -4 18 -10 24 -17 17 -18 174 -1 174 5 0 14 -28 19 -62z
m-1488 42 c0 -5 -2 -10 -4 -10 -3 0 -8 5 -11 10 -3 6 -1 10 4 10 6 0 11 -4 11
-10z m30 0 c0 -5 -5 -10 -11 -10 -5 0 -7 5 -4 10 3 6 8 10 11 10 2 0 4 -4 4
-10z m1030 1 c0 -6 -4 -13 -10 -16 -5 -3 -10 1 -10 9 0 9 5 16 10 16 6 0 10
-4 10 -9z m287 -48 c-3 -10 -5 -4 -5 12 0 17 2 24 5 18 2 -7 2 -21 0 -30z
m1008 -45 c-4 -24 -12 -48 -17 -55 -12 -15 -38 -6 -38 14 0 13 2 13 17 2 15
-13 16 -11 9 14 -5 20 -3 27 9 27 8 0 15 9 15 20 0 11 3 20 6 20 3 0 3 -19 -1
-42z m835 27 c0 -8 -7 -15 -16 -15 -14 0 -14 3 -4 15 7 8 14 15 16 15 2 0 4
-7 4 -15z m-3300 -17 c0 -21 -17 -41 -28 -34 -8 4 -6 13 6 26 19 23 22 24 22
8z m1458 -15 c1 -22 0 -24 -8 -13 -12 18 -13 40 -2 40 4 0 9 -12 10 -27z
m-1271 1 c-3 -3 -12 -4 -19 -1 -8 3 -5 6 6 6 11 1 17 -2 13 -5z m23 -20 c0 -8
-5 -12 -10 -9 -6 4 -8 11 -5 16 9 14 15 11 15 -7z m-107 -5 c7 0 3 -4 -8 -9
-29 -13 -35 -12 -35 6 0 11 5 14 16 10 9 -3 21 -6 27 -7z m1764 -11 c-3 -8 -6
-5 -6 6 -1 11 2 17 5 13 3 -3 4 -12 1 -19z m1017 -57 c-4 -20 -7 -39 -6 -43 1
-4 -5 -5 -13 -2 -17 7 -20 20 -5 29 5 3 9 21 8 39 -1 42 15 73 20 37 2 -13 0
-40 -4 -60z m-1227 47 c-3 -8 -6 -5 -6 6 -1 11 2 17 5 13 3 -3 4 -12 1 -19z
m1133 18 c0 -3 -4 -8 -10 -11 -5 -3 -10 -1 -10 4 0 6 5 11 10 11 6 0 10 -2 10
-4z m150 -66 c-5 -10 -6 -20 -3 -24 3 -3 2 -6 -4 -6 -6 0 -16 7 -23 15 -10 12
-9 15 4 15 12 0 15 6 10 24 -3 14 -2 31 2 38 12 18 25 -41 14 -62z m-1493 -2
c-2 -13 -4 -3 -4 22 0 25 2 35 4 23 2 -13 2 -33 0 -45z m1243 58 c0 -11 -19
-15 -25 -6 -3 5 1 10 9 10 9 0 16 -2 16 -4z m-838 -50 c-6 -48 -19 -46 -16 2
2 45 2 44 12 38 4 -3 6 -21 4 -40z m210 14 c-2 -17 -8 -33 -13 -36 -10 -6 -11
11 -3 44 9 33 21 27 16 -8z m-55 -2 c-3 -8 -6 -5 -6 6 -1 11 2 17 5 13 3 -3 4
-12 1 -19z m133 1 c0 -6 -4 -7 -10 -4 -5 3 -10 11 -10 16 0 6 5 7 10 4 6 -3
10 -11 10 -16z m127 -1 c-3 -8 -6 -5 -6 6 -1 11 2 17 5 13 3 -3 4 -12 1 -19z
m793 7 c0 -8 -2 -15 -4 -15 -2 0 -6 7 -10 15 -3 8 -1 15 4 15 6 0 10 -7 10
-15z m-1403 -27 c-3 -7 -5 -2 -5 12 0 14 2 19 5 13 2 -7 2 -19 0 -25z m233 23
c0 -6 -4 -13 -10 -16 -5 -3 -10 1 -10 9 0 9 5 16 10 16 6 0 10 -4 10 -9z
m-396 -26 c-4 -8 -8 -15 -10 -15 -2 0 -4 7 -4 15 0 8 4 15 10 15 5 0 7 -7 4
-15z m866 6 c0 -6 -4 -13 -10 -16 -5 -3 -10 1 -10 9 0 9 5 16 10 16 6 0 10 -4
10 -9z m974 -35 c-3 -21 -8 -35 -11 -32 -2 2 -1 20 3 40 3 21 8 35 11 32 2 -2
1 -20 -3 -40z m-3244 24 c0 -5 -2 -10 -4 -10 -3 0 -8 5 -11 10 -3 6 -1 10 4
10 6 0 11 -4 11 -10z m150 -11 c0 -6 -4 -8 -9 -5 -5 3 -11 -1 -15 -9 -3 -8
-11 -15 -18 -15 -9 0 -9 3 -2 8 6 4 13 15 17 25 7 18 27 15 27 -4z m1547 -14
c8 -22 -6 -33 -17 -15 -13 20 -12 30 0 30 6 0 13 -7 17 -15z m-1517 1 c0 -3
-4 -8 -10 -11 -5 -3 -10 -1 -10 4 0 6 5 11 10 11 6 0 10 -2 10 -4z m-90 -15
c0 -5 -9 -7 -20 -4 -11 3 -20 7 -20 9 0 2 9 4 20 4 11 0 20 -4 20 -9z m1554
-6 c3 -8 1 -15 -4 -15 -6 0 -10 7 -10 15 0 8 2 15 4 15 2 0 6 -7 10 -15z
m-104 -10 c0 -8 -2 -15 -4 -15 -2 0 -6 7 -10 15 -3 8 -1 15 4 15 6 0 10 -7 10
-15z m597 -7 c-3 -8 -6 -5 -6 6 -1 11 2 17 5 13 3 -3 4 -12 1 -19z"/>
<path d="M1547 554 c-4 -4 -7 -26 -7 -48 0 -35 2 -38 14 -26 10 11 13 25 8 48
-4 19 -10 30 -15 26z"/>
<path d="M684 3085 c-9 -14 -15 -27 -13 -30 3 -2 12 10 21 26 21 36 15 39 -8
4z"/>
<path d="M692 2968 c-15 -15 -16 -54 -2 -63 6 -3 10 0 10 7 0 7 7 25 14 41 16
29 2 39 -22 15z"/>
<path d="M785 2950 c3 -5 8 -10 11 -10 2 0 4 5 4 10 0 6 -5 10 -11 10 -5 0 -7
-4 -4 -10z"/>
<path d="M2300 2874 c0 -3 11 -24 24 -47 13 -24 51 -106 86 -182 34 -77 77
-169 95 -205 44 -89 158 -398 180 -490 10 -41 26 -91 37 -110 10 -19 18 -40
18 -46 0 -6 12 -16 28 -23 15 -7 24 -10 20 -6 -4 4 -3 17 2 29 6 17 2 27 -17
46 -13 13 -20 26 -15 29 5 3 4 18 -3 34 -6 15 -14 25 -18 22 -4 -3 -3 0 2 6
10 12 3 49 -9 49 -8 0 -42 84 -44 109 -1 9 -9 27 -18 42 -10 14 -19 39 -21 55
-2 16 -7 36 -13 44 -22 36 -34 64 -34 81 0 11 -9 35 -19 55 -18 34 -19 64 -1
64 5 0 10 -6 12 -12 3 -8 10 -3 17 11 12 21 11 23 -3 18 -10 -4 -15 -3 -11 3
3 6 13 10 20 10 9 0 12 6 9 15 -4 8 -2 15 3 15 6 0 17 19 26 42 10 23 12 37 6
31 -6 -6 -18 -9 -26 -6 -8 3 -21 -3 -29 -13 -14 -18 -15 -18 -8 5 4 16 3 21
-5 17 -6 -4 -11 -1 -11 6 -1 8 -7 5 -16 -7 -16 -19 -16 -19 -10 10 4 17 8 37
9 45 1 8 9 21 17 28 8 8 10 11 3 8 -6 -4 -13 -2 -15 4 -1 5 -8 -2 -15 -15 -7
-16 -7 -23 -1 -18 7 3 8 1 4 -6 -6 -9 -11 -9 -24 1 -10 8 -13 9 -9 1 13 -21
-9 -23 -31 -3 -15 14 -20 29 -17 50 2 17 0 28 -5 25 -10 -6 -32 20 -23 28 3 4
1 7 -6 7 -15 0 -71 60 -71 75 0 6 -13 26 -28 43 -27 30 -42 39 -42 26z"/>
<path d="M3050 2828 c0 -18 -3 -44 -7 -58 l-6 -25 30 28 c27 25 35 27 73 21
35 -6 45 -4 57 11 7 11 13 22 13 25 0 4 -28 8 -62 9 -35 1 -67 6 -72 12 -18
17 -26 9 -26 -23z"/>
<path d="M2627 2836 c-13 -10 -15 -16 -6 -21 10 -7 28 10 29 28 0 9 -2 9 -23
-7z"/>
<path d="M3251 2834 c0 -11 3 -14 6 -6 3 7 2 16 -1 19 -3 4 -6 -2 -5 -13z"/>
<path d="M0 2339 l0 -420 31 35 c17 20 34 35 37 34 4 -1 31 11 61 26 45 23 63
27 98 22 47 -6 98 9 121 36 11 14 9 15 -17 14 -16 -1 -32 -4 -35 -7 -3 -3 -28
2 -56 10 l-50 16 0 72 c0 39 9 143 20 230 11 87 21 189 23 227 l2 69 -85 22
c-47 12 -100 25 -118 28 l-32 7 0 -421z m166 -295 c-21 -8 -45 -19 -52 -25 -8
-6 -14 -9 -14 -5 0 11 65 46 85 45 12 0 5 -6 -19 -15z"/>
<path d="M2591 2628 c-8 -23 -3 -54 7 -43 6 6 11 65 5 65 -2 0 -7 -10 -12 -22z"/>
<path d="M3030 2608 c0 -18 -3 -43 -6 -55 -9 -34 10 -27 28 10 11 23 13 38 5
55 -14 32 -27 27 -27 -10z"/>
<path d="M3140 2602 c0 -7 -8 -12 -17 -10 -10 2 -19 -4 -20 -12 -3 -12 6 -14
44 -11 44 3 62 13 63 34 0 4 -7 7 -16 7 -8 0 -13 -4 -10 -9 3 -5 -1 -11 -9
-15 -8 -3 -19 3 -24 12 -7 10 -11 12 -11 4z"/>
<path d="M3207 2435 c-4 -8 -2 -17 3 -20 6 -4 10 3 10 14 0 25 -6 27 -13 6z"/>
<path d="M3206 2367 c-8 -35 -20 -223 -13 -217 3 3 11 48 17 100 6 52 13 105
16 118 6 29 -12 29 -20 -1z"/>
<path d="M3097 2361 c-5 -21 13 -44 31 -39 6 2 17 -5 24 -15 11 -15 13 -12 12
25 0 40 -2 43 -31 46 -24 2 -32 -1 -36 -17z"/>
<path d="M862 2361 c4 -13 18 -16 19 -4 0 4 -5 9 -11 12 -7 2 -11 -2 -8 -8z"/>
<path d="M705 2260 c-3 -5 -1 -10 4 -10 6 0 11 5 11 10 0 6 -2 10 -4 10 -3 0
-8 -4 -11 -10z"/>
<path d="M1829 2087 c-6 -16 -8 -157 -2 -158 4 0 15 -2 24 -4 23 -4 35 6 42
36 6 22 2 30 -19 44 -20 13 -24 22 -19 44 4 21 2 30 -9 34 -9 4 -16 5 -17 4z"/>
<path d="M375 2059 c-11 -17 1 -21 15 -4 8 9 8 15 2 15 -6 0 -14 -5 -17 -11z"/>
<path d="M205 2010 c-3 -5 -1 -10 4 -10 6 0 11 5 11 10 0 6 -2 10 -4 10 -3 0
-8 -4 -11 -10z"/>
<path d="M155 1980 c-13 -6 -15 -9 -5 -9 8 0 22 4 30 9 18 12 2 12 -25 0z"/>
<path d="M2066 1973 c-11 -11 -6 -23 9 -23 8 0 15 4 15 9 0 13 -16 22 -24 14z"/>
<path d="M211 1944 c0 -11 3 -14 6 -6 3 7 2 16 -1 19 -3 4 -6 -2 -5 -13z"/>
<path d="M110 1880 c-43 -41 -42 -44 25 -39 22 1 48 2 57 3 29 1 8 16 -22 16
-22 0 -28 4 -24 15 3 8 14 17 25 20 21 7 17 25 -6 25 -7 0 -32 -18 -55 -40z"/>
<path d="M2478 1850 l-3 -50 40 -2 c22 -1 51 -1 65 0 14 1 45 2 70 3 l45 0
-45 14 c-25 8 -66 17 -92 20 -45 6 -48 8 -48 36 0 18 -5 29 -14 29 -10 0 -15
-15 -18 -50z"/>
<path d="M452 1812 c-9 -6 -6 -14 13 -32 22 -20 25 -21 31 -6 3 9 1 23 -6 31
-14 17 -20 18 -38 7z"/>
<path d="M49 1792 c-33 -11 -49 -36 -49 -79 0 -23 1 -43 3 -43 1 0 29 5 62 10
123 20 173 22 207 7 66 -28 88 -36 88 -32 0 14 -46 55 -61 55 -11 0 -16 5 -14
13 12 30 -179 86 -236 69z"/>
<path d="M230 1786 c0 -2 7 -7 16 -10 8 -3 12 -2 9 4 -6 10 -25 14 -25 6z"/>
<path d="M275 1780 c-3 -5 1 -10 10 -10 9 0 13 5 10 10 -3 6 -8 10 -10 10 -2
0 -7 -4 -10 -10z"/>
<path d="M2765 1740 c3 -5 8 -10 11 -10 2 0 4 5 4 10 0 6 -5 10 -11 10 -5 0
-7 -4 -4 -10z"/>
<path d="M875 1724 c-19 -20 -5 -40 20 -30 13 5 15 9 6 20 -6 7 -8 16 -4 19 3
4 4 7 0 7 -3 0 -13 -7 -22 -16z"/>
<path d="M966 1711 c-4 -7 -5 -15 -2 -18 9 -9 19 4 14 18 -4 11 -6 11 -12 0z"/>
<path d="M3397 1667 c3 -17 18 -30 46 -43 36 -16 42 -24 45 -54 2 -19 9 -42
17 -50 7 -8 15 -35 19 -60 7 -46 6 -46 -31 -59 -20 -8 -57 -32 -82 -56 -76
-69 -171 -138 -212 -151 -21 -8 -98 -23 -171 -34 -190 -29 -201 -33 -213 -83
-6 -24 -4 -27 16 -27 13 0 53 -9 89 -20 36 -11 74 -20 85 -20 11 0 67 32 124
70 57 39 114 70 127 70 12 0 29 3 38 6 28 11 17 24 -20 24 -49 0 -40 24 11 28
25 2 58 17 94 43 31 21 82 57 114 79 31 23 57 45 57 49 0 5 15 16 34 25 l33
16 -9 52 c-5 29 -14 57 -19 63 -5 5 -9 21 -9 35 0 17 -10 34 -29 48 -46 34
-95 59 -128 66 -28 7 -30 5 -26 -17z"/>
<path d="M2840 1463 c0 -13 29 -38 35 -31 3 3 -4 13 -15 23 -11 10 -20 13 -20
8z"/>
<path d="M2578 1063 c7 -3 16 -2 19 1 4 3 -2 6 -13 5 -11 0 -14 -3 -6 -6z"/>
<path d="M2747 1064 c-9 -10 2 -24 19 -24 8 0 14 7 14 15 0 15 -21 21 -33 9z"/>
<path d="M2673 1053 c9 -2 23 -2 30 0 6 3 -1 5 -18 5 -16 0 -22 -2 -12 -5z"/>
<path d="M2835 1000 c21 -23 41 -26 48 -6 8 19 -1 26 -36 26 -29 0 -30 0 -12
-20z"/>
<path d="M2623 1003 c15 -2 37 -2 50 0 12 2 0 4 -28 4 -27 0 -38 -2 -22 -4z"/>
<path d="M2748 993 c7 -3 16 -2 19 1 4 3 -2 6 -13 5 -11 0 -14 -3 -6 -6z"/>
<path d="M723 788 c-4 -7 -8 -20 -10 -28 -1 -8 -7 -16 -13 -18 -6 -2 -17 -10
-25 -19 -8 -8 -15 -10 -15 -5 0 9 -29 12 -31 3 -11 -57 -1 -99 16 -71 8 13 25
13 25 -1 0 -6 -7 -17 -15 -25 -16 -17 -20 -54 -6 -54 5 0 7 10 3 22 -5 21 -4
21 19 5 29 -21 39 -21 39 -3 0 9 8 12 25 8 32 -6 39 -17 26 -39 -9 -16 -10
-16 -11 5 0 24 -15 30 -22 10 -3 -7 -4 -27 -2 -45 1 -18 -1 -32 -5 -31 -21 2
-29 -5 -27 -24 3 -24 43 -109 56 -118 3 -3 15 -20 25 -38 20 -33 41 -38 39 -8
-1 9 2 16 7 16 5 0 7 12 4 28 -3 15 -2 21 1 15 8 -18 25 -16 18 2 -4 9 0 15
10 15 9 0 16 4 16 8 0 17 -13 21 -32 11 -16 -9 -19 -8 -16 3 3 7 18 15 34 16
16 2 32 9 36 15 5 8 8 6 8 -5 0 -10 -6 -18 -12 -19 -7 0 -4 -4 7 -8 22 -9 48
-3 40 9 -7 11 10 53 28 72 16 16 97 181 97 197 0 6 -5 11 -12 11 -6 0 -41 18
-77 39 -75 45 -158 72 -169 55 -4 -6 -18 -15 -30 -19 -18 -5 -23 -12 -19 -30
2 -14 -1 -23 -7 -22 -6 1 -10 -4 -8 -12 2 -8 -3 -11 -11 -8 -7 2 -21 -1 -32
-9 -22 -16 -35 -18 -35 -4 0 6 7 10 15 10 9 0 18 7 22 16 3 8 11 13 17 11 6
-3 19 13 28 34 13 32 14 39 3 39 -8 0 -17 -6 -22 -12z m119 -68 c9 0 9 -3 0
-12 -7 -7 -12 -21 -13 -32 0 -15 -2 -16 -6 -6 -3 8 -12 21 -21 28 -10 7 -11
12 -4 12 7 0 12 12 13 28 0 26 1 26 9 5 5 -13 15 -23 22 -23z m-62 -60 c0 -5
-4 -10 -9 -10 -6 0 -13 5 -16 10 -3 6 1 10 9 10 9 0 16 -4 16 -10z m-20 -130
c0 -5 -4 -10 -10 -10 -5 0 -10 5 -10 10 0 6 5 10 10 10 6 0 10 -4 10 -10z"/>
<path d="M1826 754 c-10 -27 -7 -34 18 -34 33 0 43 18 20 35 -25 19 -31 18
-38 -1z"/>
<path d="M465 739 c-4 -6 -5 -12 -2 -15 2 -3 7 2 10 11 7 17 1 20 -8 4z"/>
<path d="M435 710 c3 -5 8 -10 11 -10 2 0 4 5 4 10 0 6 -5 10 -11 10 -5 0 -7
-4 -4 -10z"/>
<path d="M2182 688 c-7 -7 -12 -16 -12 -20 0 -12 28 -10 36 3 10 17 -10 31
-24 17z"/>
<path d="M565 660 c-3 -5 -1 -10 4 -10 6 0 11 5 11 10 0 6 -2 10 -4 10 -3 0
-8 -4 -11 -10z"/>
<path d="M3411 616 c-5 -13 -16 -26 -24 -29 -18 -7 -28 -54 -17 -83 9 -23 77
-44 141 -44 30 0 31 1 24 40 -4 25 -3 46 4 54 8 10 7 17 -4 26 -8 7 -15 19
-15 26 0 8 -4 14 -10 14 -5 0 -10 -7 -10 -15 0 -8 -9 -19 -21 -25 -26 -15 -59
11 -52 41 7 27 -6 24 -16 -5z"/>
<path d="M3087 573 c-4 -3 -7 -11 -7 -17 0 -6 5 -5 12 2 6 6 9 14 7 17 -3 3
-9 2 -12 -2z"/>
<path d="M510 561 c0 -5 -13 -8 -29 -7 -17 1 -28 -2 -25 -6 3 -4 -6 -8 -20 -8
-14 0 -26 -4 -26 -9 0 -13 62 -61 79 -60 12 0 11 3 -3 8 -23 9 -10 18 22 15
12 -1 20 1 17 4 -2 3 0 11 6 18 12 14 3 54 -12 54 -5 0 -9 -4 -9 -9z m0 -43
c0 -6 -6 -5 -15 2 -8 7 -15 8 -15 2 0 -5 -12 -9 -26 -9 -28 0 -21 13 11 19 25
5 45 -1 45 -14z"/>
<path d="M1165 560 c4 -6 11 -8 16 -5 14 9 11 15 -7 15 -8 0 -12 -5 -9 -10z"/>
<path d="M3015 560 c-3 -5 -2 -10 4 -10 5 0 13 5 16 10 3 6 2 10 -4 10 -5 0
-13 -4 -16 -10z"/>
<path d="M1120 551 c0 -6 5 -13 10 -16 6 -3 10 1 10 9 0 9 -4 16 -10 16 -5 0
-10 -4 -10 -9z"/>
<path d="M365 530 c-4 -6 -10 -8 -15 -5 -5 3 -11 1 -15 -5 -3 -5 3 -10 13 -10
11 0 22 7 26 15 6 17 0 20 -9 5z"/>
<path d="M1099 513 c-13 -16 -12 -17 4 -4 16 13 21 21 13 21 -2 0 -10 -8 -17
-17z"/>
<path d="M3240 522 c0 -10 38 -42 50 -42 16 0 12 10 -12 31 -25 20 -38 24 -38
11z"/>
<path d="M678 513 c7 -3 16 -2 19 1 4 3 -2 6 -13 5 -11 0 -14 -3 -6 -6z"/>
<path d="M3825 490 c3 -5 8 -10 11 -10 2 0 4 5 4 10 0 6 -5 10 -11 10 -5 0 -7
-4 -4 -10z"/>
<path d="M3988 470 c-11 -26 -17 -131 -8 -125 5 3 12 25 15 49 8 48 2 101 -7
76z"/>
<path d="M945 440 c-3 -5 -1 -10 4 -10 6 0 11 5 11 10 0 6 -2 10 -4 10 -3 0
-8 -4 -11 -10z"/>
<path d="M3640 430 c0 -5 5 -10 10 -10 6 0 10 5 10 10 0 6 -4 10 -10 10 -5 0
-10 -4 -10 -10z"/>
<path d="M2996 415 c-3 -8 -1 -15 4 -15 6 0 10 7 10 15 0 8 -2 15 -4 15 -2 0
-6 -7 -10 -15z"/>
<path d="M2747 391 c-9 -45 -9 -61 2 -61 14 0 22 46 13 71 -8 21 -9 20 -15
-10z"/>
<path d="M3081 394 c0 -11 3 -14 6 -6 3 7 2 16 -1 19 -3 4 -6 -2 -5 -13z"/>
<path d="M3871 374 c1 -16 5 -40 9 -54 6 -17 7 -9 3 25 -6 56 -14 74 -12 29z"/>
<path d="M2080 324 c0 -32 5 -66 10 -74 8 -12 10 -9 10 11 0 18 6 28 19 32 15
4 19 12 17 33 -5 42 -6 42 -21 4 -13 -34 -15 -32 -20 18 -5 48 -15 32 -15 -24z"/>
<path d="M2210 370 c0 -5 5 -10 10 -10 6 0 10 5 10 10 0 6 -4 10 -10 10 -5 0
-10 -4 -10 -10z"/>
<path d="M696 364 c8 -3 9 -17 3 -42 -9 -43 -11 -39 24 -47 18 -5 27 -3 27 5
0 6 -4 9 -9 6 -5 -4 -7 3 -4 13 5 21 -23 71 -41 70 -8 0 -8 -2 0 -5z"/>
<path d="M3204 328 c-10 -24 -20 -46 -22 -50 -2 -5 6 -8 18 -8 13 0 20 5 17
13 -2 6 2 29 9 50 18 51 2 47 -22 -5z"/>
<path d="M3441 354 c0 -11 3 -14 6 -6 3 7 2 16 -1 19 -3 4 -6 -2 -5 -13z"/>
<path d="M2382 340 c0 -14 2 -19 5 -12 2 6 2 18 0 25 -3 6 -5 1 -5 -13z"/>
<path d="M2991 334 c0 -11 3 -14 6 -6 3 7 2 16 -1 19 -3 4 -6 -2 -5 -13z"/>
<path d="M1820 305 c0 -14 2 -25 4 -25 2 0 6 11 8 25 3 14 1 25 -3 25 -5 0 -9
-11 -9 -25z"/>
<path d="M2201 317 c-1 -23 25 -51 34 -37 3 5 2 10 -3 10 -5 0 -14 10 -20 23
-9 18 -11 19 -11 4z"/>
<path d="M2707 314 c-4 -4 -7 -14 -7 -23 0 -11 3 -12 11 -4 6 6 10 16 7 23 -2
6 -7 8 -11 4z"/>
<path d="M1850 275 c0 -8 5 -15 10 -15 6 0 10 7 10 15 0 8 -4 15 -10 15 -5 0
-10 -7 -10 -15z"/>
<path d="M3597 270 c-7 -28 1 -46 14 -33 6 6 6 19 1 33 l-9 24 -6 -24z"/>
<path d="M3100 259 c0 -5 5 -7 10 -4 6 3 10 8 10 11 0 2 -4 4 -10 4 -5 0 -10
-5 -10 -11z"/>
<path d="M3330 260 c0 -5 7 -10 15 -10 8 0 15 5 15 10 0 6 -7 10 -15 10 -8 0
-15 -4 -15 -10z"/>
<path d="M3535 250 c-3 -5 -1 -10 4 -10 6 0 11 5 11 10 0 6 -2 10 -4 10 -3 0
-8 -4 -11 -10z"/>
<path d="M3826 245 c4 -8 10 -15 15 -15 4 0 6 7 3 15 -4 8 -10 15 -15 15 -4 0
-6 -7 -3 -15z"/>
<path d="M3950 245 c0 -9 6 -12 15 -9 8 4 12 10 9 15 -8 14 -24 10 -24 -6z"/>
<path d="M690 233 c0 -17 15 -17 28 0 8 10 6 13 -9 13 -10 0 -19 -6 -19 -13z"/>
<path d="M957 236 c-9 -7 -17 -23 -17 -35 0 -21 1 -21 25 -5 24 16 33 38 17
48 -4 2 -15 -1 -25 -8z"/>
<path d="M1850 234 c0 -8 5 -12 10 -9 6 3 10 10 10 16 0 5 -4 9 -10 9 -5 0
-10 -7 -10 -16z"/>
<path d="M3885 154 c2 -50 7 -99 11 -108 8 -20 24 -21 24 -2 0 8 6 16 12 18
10 4 9 17 -4 58 -10 29 -12 48 -6 42 6 -6 17 -8 25 -5 10 4 14 0 12 -13 -2
-10 -1 -19 3 -19 4 0 14 -9 22 -20 15 -19 15 -19 16 8 0 15 -9 36 -20 47 -11
11 -20 29 -20 39 0 14 -5 18 -20 14 -11 -3 -20 -9 -20 -14 0 -20 -19 -7 -29
19 -9 21 -10 8 -6 -64z"/>
<path d="M2080 205 c0 -8 2 -15 4 -15 2 0 6 7 10 15 3 8 1 15 -4 15 -6 0 -10
-7 -10 -15z"/>
<path d="M3598 193 c-10 -3 -18 -11 -18 -20 0 -13 3 -13 15 -3 12 10 15 10 15
-1 0 -10 3 -10 12 -1 15 15 0 30 -24 25z"/>
<path d="M3063 168 c-2 -18 0 -20 7 -8 12 18 13 30 2 30 -4 0 -9 -10 -9 -22z"/>
<path d="M793 165 c-35 -6 -65 -14 -69 -17 -3 -3 -4 -20 -2 -36 l3 -31 74 32
c110 48 107 73 -6 52z"/>
<path d="M980 155 c-7 -8 -17 -12 -23 -8 -5 3 -7 1 -4 -5 4 -5 17 -8 30 -5 17
4 19 3 7 -6 -11 -7 -12 -13 -4 -21 16 -16 35 11 27 38 -6 26 -16 28 -33 7z"/>
<path d="M3681 154 c0 -11 3 -14 6 -6 3 7 2 16 -1 19 -3 4 -6 -2 -5 -13z"/>
<path d="M3808 135 c4 -36 21 -58 23 -31 4 51 1 66 -14 66 -9 0 -12 -11 -9
-35z"/>
<path d="M435 119 c4 -15 8 -42 9 -60 2 -19 4 -40 5 -46 1 -9 19 -13 52 -13
28 0 49 4 47 8 -1 5 -29 38 -61 73 -47 51 -57 59 -52 38z"/>
<path d="M3649 102 c-6 -18 -15 -30 -19 -27 -18 11 -17 -11 1 -45 11 -19 19
-28 19 -21 0 8 7 23 16 32 19 21 22 65 5 82 -8 8 -14 2 -22 -21z"/>
<path d="M3857 113 c-3 -10 -8 -31 -12 -48 -3 -16 -8 -38 -11 -47 -4 -13 0
-18 15 -18 20 0 21 5 20 65 -2 67 -4 77 -12 48z"/>
<path d="M916 103 c-6 -14 -5 -15 5 -6 7 7 10 15 7 18 -3 3 -9 -2 -12 -12z"/>
<path d="M3972 68 c6 -18 28 -21 28 -4 0 9 -7 16 -16 16 -9 0 -14 -5 -12 -12z"/>
<path d="M3690 26 c0 -19 5 -26 20 -26 16 0 18 4 11 22 -12 32 -31 34 -31 4z"/>
<path d="M3580 10 c0 -5 5 -10 11 -10 5 0 7 5 4 10 -3 6 -8 10 -11 10 -2 0 -4
-4 -4 -10z"/>
</g>
</svg>
